<svg width="150" height="150" viewBox="0 0 150 150" fill="none" xmlns="http://www.w3.org/2000/svg">
<circle cx="2.5" cy="2.5" r="2.5" fill="#EB4C29"/>
<circle cx="17.5" cy="2.5" r="2.5" fill="#EB4C29"/>
<circle cx="32.5" cy="2.5" r="2.5" fill="#EB4C29"/>
<circle cx="47.5" cy="2.5" r="2.5" fill="#EB4C29"/>
<circle cx="62.5" cy="2.5" r="2.5" fill="#EB4C29"/>
<circle cx="77.5" cy="2.5" r="2.5" fill="#EB4C29"/>
<circle cx="92.5" cy="2.5" r="2.5" fill="#EB4C29"/>
<circle cx="107.5" cy="2.5" r="2.5" fill="#EB4C29"/>
<circle cx="122.5" cy="2.5" r="2.5" fill="#EB4C29"/>
<circle cx="137.5" cy="2.5" r="2.5" fill="#EB4C29"/>
<circle cx="2.5" cy="17.5" r="2.5" fill="#EB4C29"/>
<circle cx="17.5" cy="17.5" r="2.5" fill="#EB4C29"/>
<circle cx="32.5" cy="17.5" r="2.5" fill="#EB4C29"/>
<circle cx="47.5" cy="17.5" r="2.5" fill="#EB4C29"/>
<circle cx="62.5" cy="17.5" r="2.5" fill="#EB4C29"/>
<circle cx="77.5" cy="17.5" r="2.5" fill="#EB4C29"/>
<circle cx="92.5" cy="17.5" r="2.5" fill="#EB4C29"/>
<circle cx="107.5" cy="17.5" r="2.5" fill="#EB4C29"/>
<circle cx="122.5" cy="17.5" r="2.5" fill="#EB4C29"/>
<circle cx="137.5" cy="17.5" r="2.5" fill="#EB4C29"/>
<circle cx="2.5" cy="32.5" r="2.5" fill="#EB4C29"/>
<circle cx="17.5" cy="32.5" r="2.5" fill="#EB4C29"/>
<circle cx="32.5" cy="32.5" r="2.5" fill="#EB4C29"/>
<circle cx="47.5" cy="32.5" r="2.5" fill="#EB4C29"/>
<circle cx="62.5" cy="32.5" r="2.5" fill="#EB4C29"/>
<circle cx="77.5" cy="32.5" r="2.5" fill="#EB4C29"/>
<circle cx="92.5" cy="32.5" r="2.5" fill="#EB4C29"/>
<circle cx="107.5" cy="32.5" r="2.5" fill="#EB4C29"/>
<circle cx="122.5" cy="32.5" r="2.5" fill="#EB4C29"/>
<circle cx="137.5" cy="32.5" r="2.5" fill="#EB4C29"/>
<circle cx="2.5" cy="47.5" r="2.5" fill="#EB4C29"/>
<circle cx="17.5" cy="47.5" r="2.5" fill="#EB4C29"/>
<circle cx="32.5" cy="47.5" r="2.5" fill="#EB4C29"/>
<circle cx="47.5" cy="47.5" r="2.5" fill="#EB4C29"/>
<circle cx="62.5" cy="47.5" r="2.5" fill="#EB4C29"/>
<circle cx="77.5" cy="47.5" r="2.5" fill="#EB4C29"/>
<circle cx="92.5" cy="47.5" r="2.5" fill="#EB4C29"/>
<circle cx="107.5" cy="47.5" r="2.5" fill="#EB4C29"/>
<circle cx="122.5" cy="47.5" r="2.5" fill="#EB4C29"/>
<circle cx="137.5" cy="47.5" r="2.5" fill="#EB4C29"/>
<circle cx="2.5" cy="62.5" r="2.5" fill="#EB4C29"/>
<circle cx="17.5" cy="62.5" r="2.5" fill="#EB4C29"/>
<circle cx="32.5" cy="62.5" r="2.5" fill="#EB4C29"/>
<circle cx="47.5" cy="62.5" r="2.5" fill="#EB4C29"/>
<circle cx="62.5" cy="62.5" r="2.5" fill="#EB4C29"/>
<circle cx="77.5" cy="62.5" r="2.5" fill="#EB4C29"/>
<circle cx="92.5" cy="62.5" r="2.5" fill="#EB4C29"/>
<circle cx="107.5" cy="62.5" r="2.5" fill="#EB4C29"/>
<circle cx="122.5" cy="62.5" r="2.5" fill="#EB4C29"/>
<circle cx="137.5" cy="62.5" r="2.5" fill="#EB4C29"/>
<circle cx="2.5" cy="77.5" r="2.5" fill="#EB4C29"/>
<circle cx="17.5" cy="77.5" r="2.5" fill="#EB4C29"/>
<circle cx="32.5" cy="77.5" r="2.5" fill="#EB4C29"/>
<circle cx="47.5" cy="77.5" r="2.5" fill="#EB4C29"/>
<circle cx="62.5" cy="77.5" r="2.5" fill="#EB4C29"/>
<circle cx="77.5" cy="77.5" r="2.5" fill="#EB4C29"/>
<circle cx="92.5" cy="77.5" r="2.5" fill="#EB4C29"/>
<circle cx="107.5" cy="77.5" r="2.5" fill="#EB4C29"/>
<circle cx="122.5" cy="77.5" r="2.5" fill="#EB4C29"/>
<circle cx="137.5" cy="77.5" r="2.5" fill="#EB4C29"/>
<circle cx="2.5" cy="92.5" r="2.5" fill="#EB4C29"/>
<circle cx="17.5" cy="92.5" r="2.5" fill="#EB4C29"/>
<circle cx="32.5" cy="92.5" r="2.5" fill="#EB4C29"/>
<circle cx="47.5" cy="92.5" r="2.5" fill="#EB4C29"/>
<circle cx="62.5" cy="92.5" r="2.5" fill="#EB4C29"/>
<circle cx="77.5" cy="92.5" r="2.5" fill="#EB4C29"/>
<circle cx="92.5" cy="92.5" r="2.5" fill="#EB4C29"/>
<circle cx="107.5" cy="92.5" r="2.5" fill="#EB4C29"/>
<circle cx="122.5" cy="92.5" r="2.5" fill="#EB4C29"/>
<circle cx="137.5" cy="92.5" r="2.5" fill="#EB4C29"/>
<circle cx="2.5" cy="107.5" r="2.5" fill="#EB4C29"/>
<circle cx="17.5" cy="107.5" r="2.5" fill="#EB4C29"/>
<circle cx="32.5" cy="107.5" r="2.5" fill="#EB4C29"/>
<circle cx="47.5" cy="107.5" r="2.5" fill="#EB4C29"/>
<circle cx="62.5" cy="107.5" r="2.5" fill="#EB4C29"/>
<circle cx="77.5" cy="107.5" r="2.5" fill="#EB4C29"/>
<circle cx="92.5" cy="107.5" r="2.5" fill="#EB4C29"/>
<circle cx="107.5" cy="107.5" r="2.5" fill="#EB4C29"/>
<circle cx="122.5" cy="107.5" r="2.5" fill="#EB4C29"/>
<circle cx="137.5" cy="107.5" r="2.5" fill="#EB4C29"/>
<circle cx="2.5" cy="122.5" r="2.5" fill="#EB4C29"/>
<circle cx="17.5" cy="122.5" r="2.5" fill="#EB4C29"/>
<circle cx="32.5" cy="122.5" r="2.5" fill="#EB4C29"/>
<circle cx="47.5" cy="122.5" r="2.5" fill="#EB4C29"/>
<circle cx="62.5" cy="122.5" r="2.5" fill="#EB4C29"/>
<circle cx="77.5" cy="122.5" r="2.5" fill="#EB4C29"/>
<circle cx="92.5" cy="122.5" r="2.5" fill="#EB4C29"/>
<circle cx="107.5" cy="122.5" r="2.5" fill="#EB4C29"/>
<circle cx="122.5" cy="122.5" r="2.5" fill="#EB4C29"/>
<circle cx="137.5" cy="122.5" r="2.5" fill="#EB4C29"/>
<circle cx="2.5" cy="137.5" r="2.5" fill="#EB4C29"/>
<circle cx="17.5" cy="137.5" r="2.5" fill="#EB4C29"/>
<circle cx="32.5" cy="137.5" r="2.5" fill="#EB4C29"/>
<circle cx="47.5" cy="137.5" r="2.5" fill="#EB4C29"/>
<circle cx="62.5" cy="137.5" r="2.5" fill="#EB4C29"/>
<circle cx="77.5" cy="137.5" r="2.5" fill="#EB4C29"/>
<circle cx="92.5" cy="137.5" r="2.5" fill="#EB4C29"/>
<circle cx="107.5" cy="137.5" r="2.5" fill="#EB4C29"/>
<circle cx="122.5" cy="137.5" r="2.5" fill="#EB4C29"/>
<circle cx="137.5" cy="137.5" r="2.5" fill="#EB4C29"/>
</svg>
